<svg id="Layer_1" data-name="Layer 1" xmlns="http://www.w3.org/2000/svg" viewBox="0 0 169.59 116.76"><defs><style>.cls-1{fill:#fd6a2d;}.cls-2,.cls-4,.cls-9{fill:none;}.cls-2,.cls-4,.cls-8,.cls-9{stroke:#000;}.cls-11,.cls-2,.cls-4{stroke-miterlimit:10;}.cls-2{stroke-width:2px;}.cls-3{fill:#e2e2e2;}.cls-5{fill:#fae7df;}.cls-6{fill:#393837;}.cls-7{fill:#edba2b;}.cls-10,.cls-8{fill:#fff;}.cls-8,.cls-9{stroke-linecap:round;stroke-linejoin:round;}.cls-11{fill:#fcfbf9;stroke:#393837;stroke-width:0.5px;}</style></defs><title>Artboard 1</title><g id="Layer_2" data-name="Layer 2"><g id="レイヤー_2" data-name="レイヤー 2"><path class="cls-1" d="M131.36,11.82c-14-10.32-34.73-.53-46.24,12.64C73.61,11.29,59,1,39.75,10.54c-19.56,9.78-20,38-3.71,59.18C49.2,86.78,63.75,104.8,77.83,112.45a14.33,14.33,0,0,0,1.67.94,13.35,13.35,0,0,0,10.93,0,15.06,15.06,0,0,0,1.66-.94C106.23,104.8,118.58,96,133.54,70,149,43.17,147.85,24,131.36,11.82Z"/><g id="left"><polygon class="cls-2" points="129.06 113.11 126.08 97.23 60.6 27.92 56.17 31.93 55.82 32.26 55.47 32.56 51.02 36.59 113.54 108.58 129.06 113.11"/><polygon class="cls-3" points="129.06 113.11 126.08 97.23 60.6 27.92 56.17 31.93 55.82 32.26 55.47 32.56 51.02 36.59 113.54 108.58 129.06 113.11"/><line class="cls-4" x1="128.99" y1="113.04" x2="56.16" y2="32.64"/><polygon class="cls-5" points="29.83 10.44 33.83 9.3 35.14 8.12 36.67 4.25 56.66 28 51.5 32.67 29.83 10.44"/><path class="cls-6" d="M36.84,5.24,55.94,28,54.3,29.44l-.37.35-.2.16-.18.18-.38.34L51.53,32,30.8,10.7l3.1-.88.23-.07.19-.15.37-.34.18-.17.19-.18.37-.34.19-.15.08-.23,1.18-2.95m-.32-2L34.7,7.81l-.37.34-.2.17-.19.17-.37.34-4.71,1.36,22.62,23.2,2.39-2.16.37-.34.19-.17.19-.17.37-.34,2.39-2.16L36.52,3.25Z"/><path class="cls-7" d="M42.05,45.11a4.55,4.55,0,0,1,.9-5.56l21.39-19.4A4.56,4.56,0,0,1,70,19.79Z"/><path class="cls-6" d="M67.37,19.39a4.15,4.15,0,0,1,1.95.49L42.17,44.47a4.14,4.14,0,0,1,1-4.63L64.61,20.46a4.12,4.12,0,0,1,2.76-1m0-.77a4.9,4.9,0,0,0-3.28,1.23L42.7,39.26A4.94,4.94,0,0,0,42,45.71L70.57,19.78a5,5,0,0,0-3.2-1.16Z"/><path class="cls-5" d="M32.68,11.36a4.64,4.64,0,1,1,3.1-1.19A4.65,4.65,0,0,1,32.68,11.36Z"/><path class="cls-6" d="M32.68,2.58h0a4.13,4.13,0,0,1,4.18,4.09,4.07,4.07,0,0,1-1.4,3.14,4.13,4.13,0,0,1-6.9-3.3,4.08,4.08,0,0,1,1.36-2.9,4.13,4.13,0,0,1,2.76-1m0-1a5.17,5.17,0,1,0,5.17,5.16A5.16,5.16,0,0,0,32.68,1.55Z"/></g><g id="right"><polygon class="cls-2" points="39.92 114.15 42.9 98.27 108.38 28.95 112.82 32.97 113.16 33.29 113.51 33.6 117.96 37.62 55.44 109.61 39.92 114.15"/><polygon class="cls-3" points="39.92 114.15 42.9 98.27 108.38 28.95 112.82 32.97 113.16 33.29 113.51 33.6 117.96 37.62 55.44 109.61 39.92 114.15"/><polygon class="cls-5" points="112.31 29.03 132.31 5.28 133.85 9.14 135.15 10.33 139.15 11.48 117.48 33.7 112.31 29.03"/><path class="cls-6" d="M132.14,6.27l1.18,3,.08.23.19.16L134,10l.19.17.18.17.37.34.19.15.23.08,3.1.88L117.55,33l-1.74-1.48-.37-.34-.19-.18-.2-.16-.33-.35L113.08,29l19.1-22.73m.32-2L111.62,29.08,114,31.24l.37.34.19.17.19.17.38.35,2.38,2.16,22.63-23.21-4.76-1.35L135,9.52l-.18-.17-.19-.17-.37-.34-1.82-4.56Z"/><path class="cls-7" d="M99,20.85a4.56,4.56,0,0,1,5.62.35L126,40.58a4.59,4.59,0,0,1,.92,5.56Z"/><path class="cls-6" d="M101.61,20.42h0a4.14,4.14,0,0,1,2.77,1l21.39,19.38a4.14,4.14,0,0,1,1,4.63L99.66,20.91a4.15,4.15,0,0,1,2-.49m0-.77a4.93,4.93,0,0,0-3.2,1.17L127,46.74a5,5,0,0,0-.75-6.45L104.9,20.91A4.93,4.93,0,0,0,101.61,19.65Z"/><path class="cls-5" d="M136.3,12.4a4.64,4.64,0,1,1,3.44-1.55,4.66,4.66,0,0,1-3.44,1.55Z"/><path class="cls-6" d="M136.3,3.61a4.14,4.14,0,1,1-4.18,4.1A4.09,4.09,0,0,1,133.2,5a4.15,4.15,0,0,1,3.1-1.36m0-1a5.16,5.16,0,1,0,3.47,1.33A5.16,5.16,0,0,0,136.3,2.58Z"/><line class="cls-4" x1="39.99" y1="114.08" x2="112.82" y2="33.67"/></g><path class="cls-8" d="M35.87,93.94q-14.4,2.13-28.64,5.52,3.33-8,7.08-15.85Q7.73,77.87.77,72.36q15.41-3.67,31-6Z"/><path class="cls-9" d="M19.84,79.34q5.76-6.59,12-13"/><path class="cls-8" d="M133.86,93.94q14.4,2.13,28.63,5.52-3.31-8-7.07-15.85Q162,77.87,169,72.36q-15.4-3.67-31-6Z"/><path class="cls-9" d="M149.89,79.34q-5.76-6.59-11.95-13"/><path class="cls-8" d="M84.86,73.28a351.94,351.94,0,0,0-65,6.06L25,106.72a324,324,0,0,1,119.75,0Q147.3,93,149.89,79.34A352,352,0,0,0,84.86,73.28Z"/><path d="M30.28,85.74a4.52,4.52,0,0,1,1.88-1.43,3.85,3.85,0,0,1,2.05.77,11,11,0,0,1,1.84,1.24,2.38,2.38,0,0,1,.52,1.37,2.78,2.78,0,0,1-.1,1.52,7.45,7.45,0,0,1-1,1.42,11.17,11.17,0,0,1,2.13,1.48A2.77,2.77,0,0,1,38,93.43a2.46,2.46,0,0,1,0,1.32A7.48,7.48,0,0,1,36.47,97a4.29,4.29,0,0,1-2.08,1.56l-4.27.68L28.68,90.7a7.75,7.75,0,0,0-.62-2.24,5.58,5.58,0,0,0-1.31-1.38l2.53-2.31A2.72,2.72,0,0,1,30.28,85.74Zm1.14,3.32.23,1.42,1.08-.17c.15,0,.33-.18.52-.48a2.6,2.6,0,0,0,.37-.76,1.8,1.8,0,0,0,0-.74,1.59,1.59,0,0,0-.57-.89,1.15,1.15,0,0,0-.88-.41,4.4,4.4,0,0,0-1.09.44C31.23,88,31.33,88.52,31.42,89.06ZM32,92.7l.58,3.67L34,96.14q.27,0,.6-.51a4.3,4.3,0,0,0,.47-.81,3.09,3.09,0,0,0,0-1.3c-.06-.44-.48-.81-1.24-1.1Z"/><path d="M45.47,96.29a3.83,3.83,0,0,1-1.76,1.21,3.86,3.86,0,0,1-2-.74A7,7,0,0,1,40,95.5a7.38,7.38,0,0,1-.88-3.15,7.24,7.24,0,0,1,0-3.25,7.39,7.39,0,0,1,1.41-1.68,4.15,4.15,0,0,1,1.81-1.24,4,4,0,0,1,2.06.75,7.22,7.22,0,0,1,1.78,1.28,7.06,7.06,0,0,1,.81,3.15,7.43,7.43,0,0,1-.07,3.27A7.36,7.36,0,0,1,45.47,96.29ZM42.87,95a.92.92,0,0,0,.55.23q.19,0,.48-.36a3,3,0,0,0,.4-.6,6.33,6.33,0,0,0,0-2.53,6.65,6.65,0,0,0-.58-2.48,2.79,2.79,0,0,0-.55-.49.9.9,0,0,0-.56-.23c-.12,0-.29.14-.48.37a2.57,2.57,0,0,0-.41.6A6.5,6.5,0,0,0,41.74,92a6.5,6.5,0,0,0,.6,2.47A2.6,2.6,0,0,0,42.87,95Z"/><path d="M55.85,85c.24,2.76.47,5.52.71,8.28a2,2,0,0,0,1.09,1.17l-1.74,1.71a3.61,3.61,0,0,1-.73-.58,6.68,6.68,0,0,1-.75-.89c-1,1.19-1.8,1.82-2.26,1.86s-.9-.27-1.72-.9a6.11,6.11,0,0,1-1.57-1.59,9.42,9.42,0,0,1-.58-2.84,8.89,8.89,0,0,1,0-2.9,5.68,5.68,0,0,1,1.23-1.88c.69-.79,1.21-1.21,1.55-1.24a4.8,4.8,0,0,1,2.56,1.22l.15-1.23Zm-2.69,3.35a2.34,2.34,0,0,0-1.38-.68.79.79,0,0,0-.47.31,1.51,1.51,0,0,0-.3.52,5.79,5.79,0,0,0,0,2.44,5.69,5.69,0,0,0,.52,2.38,1.63,1.63,0,0,0,.39.44.7.7,0,0,0,.52.22,1.46,1.46,0,0,0,.66-.33,1.92,1.92,0,0,0,.54-.55,10.43,10.43,0,0,0-.07-2.38A9.25,9.25,0,0,0,53.16,88.35Z"/><path d="M62.36,95.45l-2.75.2-.53-7a4,4,0,0,0-.4-1.58,2.71,2.71,0,0,0-.88-.94l2.25-1.74a4.37,4.37,0,0,1,1.28,1.33c1-1,1.71-1.53,2.14-1.56a2.56,2.56,0,0,1,1.35.67A2.81,2.81,0,0,1,66,86.44c-.74.56-1.47,1.13-2.19,1.69a2.49,2.49,0,0,0-.31-.93c-.17-.3-.31-.45-.42-.44s-.65.32-1.2.93Z"/><path d="M68.07,85c.75-.76,1.31-1.15,1.68-1.16a4,4,0,0,1,2,1l0-1a3.66,3.66,0,0,0-.32-1.57,2.77,2.77,0,0,0-.86-1l2.33-1.65a3.78,3.78,0,0,1,1.67,3.21l.36,11.93-2.13.07c-.09-.39-.19-.79-.29-1.19q-1.47,1.5-2.22,1.53c-.33,0-.89-.32-1.68-1a5.17,5.17,0,0,1-1.39-1.52,11.26,11.26,0,0,1-.4-3,10.35,10.35,0,0,1,.08-3A5.09,5.09,0,0,1,68.07,85Zm3.58,2.09a1.83,1.83,0,0,0-.63-.5,1.53,1.53,0,0,0-.71-.24.74.74,0,0,0-.49.28,1.91,1.91,0,0,0-.37.57,11.4,11.4,0,0,0,0,2.36,10.4,10.4,0,0,0,.24,2.34,2,2,0,0,0,.41.53.68.68,0,0,0,.49.25,1.37,1.37,0,0,0,.66-.3,1.92,1.92,0,0,0,.58-.5,5.92,5.92,0,0,0,.11-1.64l0-.75A9.45,9.45,0,0,0,71.65,87.11Z"/><path d="M84.81,81.37a4.44,4.44,0,0,1,2.08-1.1,3.85,3.85,0,0,1,1.9,1.08,9.88,9.88,0,0,1,1.61,1.52,2.44,2.44,0,0,1,.3,1.43,2.9,2.9,0,0,1-.34,1.49A7.26,7.26,0,0,1,89.16,87,11.29,11.29,0,0,1,91,88.83a2.69,2.69,0,0,1,.2,1.37A2.38,2.38,0,0,1,91,91.5a7.49,7.49,0,0,1-1.86,2,4.14,4.14,0,0,1-2.29,1.2c-1.43,0-2.87,0-4.31,0L82.46,86a7.47,7.47,0,0,0-.27-2.31,5.38,5.38,0,0,0-1.06-1.57L84,80.26A2.71,2.71,0,0,1,84.81,81.37Zm.6,3.47v1.44H86.5c.16,0,.35-.13.59-.39a2.57,2.57,0,0,0,.49-.7,1.93,1.93,0,0,0,.13-.72,1.64,1.64,0,0,0-.42-1c-.29-.36-.55-.54-.8-.54a3.89,3.89,0,0,0-1.14.26C85.39,83.74,85.41,84.29,85.41,84.84Zm0,3.69c0,1.23,0,2.47,0,3.71h1.45a1,1,0,0,0,.67-.41,4,4,0,0,0,.59-.72,3.12,3.12,0,0,0,.19-1.29q0-.66-1-1.29Z"/><path d="M92.54,83.85l2.84.08q-.1,3.76-.23,7.53a1.1,1.1,0,0,0,.31.73,1,1,0,0,0,.62.4c.2,0,.61-.26,1.25-.79.1-2.6.19-5.2.29-7.8l2.84.12q-.24,5.46-.5,10.91l-2.12-.09-.21-1.2c-1.08.92-1.82,1.37-2.24,1.36a3.66,3.66,0,0,1-1.83-1.18,3.11,3.11,0,0,1-1.19-2.25Z"/><path d="M103.44,85.11a3.32,3.32,0,0,1,1.79-1,4,4,0,0,1,1.84,1.21l.07-1a3.82,3.82,0,0,0-.16-1.59,2.76,2.76,0,0,0-.76-1.05l2.49-1.4A3.76,3.76,0,0,1,110,83.68q-.44,6-.88,11.9L107,95.43c-.06-.4-.11-.8-.17-1.21-1.08.89-1.86,1.32-2.36,1.29-.33,0-.86-.41-1.58-1.17a5.15,5.15,0,0,1-1.22-1.66,10.83,10.83,0,0,1-.08-3,10.49,10.49,0,0,1,.39-3A5.12,5.12,0,0,1,103.44,85.11Zm3.34,2.46a1.65,1.65,0,0,0-.58-.57,1.6,1.6,0,0,0-.67-.32.79.79,0,0,0-.52.24,1.86,1.86,0,0,0-.43.52,11.41,11.41,0,0,0-.26,2.35,10.88,10.88,0,0,0,0,2.35,2,2,0,0,0,.35.57.67.67,0,0,0,.47.3,1.42,1.42,0,0,0,.69-.23,2.15,2.15,0,0,0,.63-.43,7.08,7.08,0,0,0,.27-1.63l0-.75A8.83,8.83,0,0,0,106.78,87.57Z"/><path d="M112.81,85.76a3.35,3.35,0,0,1,1.82-.94,4,4,0,0,1,1.81,1.26l.09-1a3.69,3.69,0,0,0-.11-1.6,2.81,2.81,0,0,0-.73-1.07l2.53-1.33a3.77,3.77,0,0,1,1.23,3.4l-1.2,11.88-2.12-.21c0-.4-.09-.81-.14-1.21-1.1.86-1.9,1.27-2.4,1.22-.33,0-.84-.43-1.54-1.22a5.27,5.27,0,0,1-1.18-1.69,11.23,11.23,0,0,1,0-3,10.37,10.37,0,0,1,.47-3A5.1,5.1,0,0,1,112.81,85.76Zm3.27,2.54a1.65,1.65,0,0,0-.56-.58,1.69,1.69,0,0,0-.66-.34.77.77,0,0,0-.53.22,1.87,1.87,0,0,0-.44.51,11.1,11.1,0,0,0-.33,2.34,10.32,10.32,0,0,0-.07,2.36,1.86,1.86,0,0,0,.34.58.73.73,0,0,0,.45.31,1.65,1.65,0,0,0,.7-.21,2.25,2.25,0,0,0,.64-.42,6.31,6.31,0,0,0,.32-1.62l.07-.75A8.92,8.92,0,0,0,116.08,88.3Z"/><path d="M122.83,81.62a3,3,0,0,1,1,.77c.49.5.73.83.72,1s-.33.42-.94.8a2.73,2.73,0,0,1-1.13.55c-.15,0-.47-.27-1-.77s-.74-.82-.72-1,.32-.43.92-.81A3.14,3.14,0,0,1,122.83,81.62Zm-1.93,4,2.83.31q-.41,3.49-.8,7a4.14,4.14,0,0,0,.06,1.62,2.67,2.67,0,0,0,.68,1.08q-1.23.63-2.46,1.29a3.93,3.93,0,0,1-1.15-3.43Z"/><path d="M132.92,92.65l-.11.72c-1.69-.24-3.38-.47-5.08-.69a4.86,4.86,0,0,0,.07,1.95,1.52,1.52,0,0,0,.31.54.82.82,0,0,0,.53.32c.2,0,.46-.1.8-.38a3.63,3.63,0,0,0,.84-1.07l1.95,1.77a5.22,5.22,0,0,1-2,1.5,3.87,3.87,0,0,1-2,.49,3.94,3.94,0,0,1-1.9-1.33A6.46,6.46,0,0,1,125,94.61a8.57,8.57,0,0,1,.06-3,8.79,8.79,0,0,1,.65-2.9,6.19,6.19,0,0,1,1.88-1.45,4.1,4.1,0,0,1,2.16-.81,4.15,4.15,0,0,1,1.87,1.34A6.27,6.27,0,0,1,133,89.71,8.49,8.49,0,0,1,132.92,92.65Zm-2.57-2.93a2.06,2.06,0,0,0-.42-.6,1.08,1.08,0,0,0-.58-.34q-.28,0-.72.45a3.36,3.36,0,0,0-.65,1.54l2.41.32A4,4,0,0,0,130.35,89.72Z"/><path d="M141.4,96.23c-.07.41-.72,1-1.94,1.78a4.77,4.77,0,0,1-2.6,1,3.86,3.86,0,0,1-1.81-1,5.19,5.19,0,0,1-1.45-2l2.36-1.1c.56,1,1,1.59,1.31,1.64a1.75,1.75,0,0,0,.93-.2c.38-.17.59-.35.62-.55s-.14-.2-.44-.44-.68-.52-1.12-.87A16.91,16.91,0,0,1,136,93.34a5,5,0,0,1-1-1.44,2.64,2.64,0,0,1-.28-1.57c.08-.51.65-1.08,1.73-1.71a4.18,4.18,0,0,1,2.41-.81,3.87,3.87,0,0,1,1.84,1.06,5,5,0,0,1,1.46,2l-2.41,1q-.83-1.56-1.32-1.65a1.24,1.24,0,0,0-.67.17c-.27.15-.42.29-.44.44s.2.41.66.8,1,.8,1.53,1.22a6.84,6.84,0,0,1,1.47,1.56A2.32,2.32,0,0,1,141.4,96.23Z"/><rect class="cls-10" x="63.86" y="52.83" width="10.51" height="11.56"/><path class="cls-6" d="M83.6,42.82l-14,12.62a2.71,2.71,0,0,0-.6.78,3.33,3.33,0,0,0-.36,1,3.61,3.61,0,0,0-.11,1.09,3.09,3.09,0,0,0,.17,1l6.89,19a1.18,1.18,0,0,0,.33.49.75.75,0,0,0,.46.15,1.24,1.24,0,0,0,.53-.18,2.18,2.18,0,0,0,.54-.51L88.32,64.37a3.68,3.68,0,0,0,.34-.58c.09-.23.16-.47.23-.71a3.55,3.55,0,0,0,.08-.73,2.3,2.3,0,0,0,0-.69L85.2,43.91a2.3,2.3,0,0,0-.26-.72,1.33,1.33,0,0,0-.38-.44.81.81,0,0,0-.46-.12.94.94,0,0,0-.5.19M49.61,55l8,15.85a3.17,3.17,0,0,0,.37.58,6.3,6.3,0,0,0,.48.55,5.72,5.72,0,0,0,.53.45,2.86,2.86,0,0,0,.54.3l14.79,6.15A2,2,0,0,0,75,79a.63.63,0,0,0,.44-.1.45.45,0,0,0,.2-.34,1.06,1.06,0,0,0-.09-.56l-7-18.89a5.27,5.27,0,0,0-.48-.91,5.35,5.35,0,0,0-.7-.8,4.53,4.53,0,0,0-.82-.62,2.64,2.64,0,0,0-.82-.32L50,53.39a.64.64,0,0,0-.43,0,.5.5,0,0,0-.2.31,1.23,1.23,0,0,0,0,.54,3.52,3.52,0,0,0,.26.68M64.65,42.29,50.56,52a3.89,3.89,0,0,0-.53.46,1,1,0,0,0-.25.41.36.36,0,0,0,0,.32.56.56,0,0,0,.36.19l15.78,2.88a2.72,2.72,0,0,0,.9,0,4.24,4.24,0,0,0,1-.21,5.26,5.26,0,0,0,1-.4,4.1,4.1,0,0,0,.82-.56L83.82,42.65a.9.9,0,0,0,.29-.4.32.32,0,0,0,0-.33.72.72,0,0,0-.36-.23,2,2,0,0,0-.65-.08l-15.88-.15a4.22,4.22,0,0,0-.61.07,5.06,5.06,0,0,0-.67.17,4.93,4.93,0,0,0-.67.27,4,4,0,0,0-.57.32"/><path class="cls-11" d="M80.89,62.34a1.9,1.9,0,0,1-.67.52.92.92,0,0,1-.67.08,1.12,1.12,0,0,1-.58-.37,1.89,1.89,0,0,1-.41-.81,4.42,4.42,0,0,1-.16-1.09,6,6,0,0,1,.15-1.19,5.25,5.25,0,0,1,.39-1.09,3.25,3.25,0,0,1,.61-.9,1.72,1.72,0,0,1,.71-.48,1,1,0,0,1,.67,0,1.09,1.09,0,0,1,.54.43,2.32,2.32,0,0,1,.38.83A4,4,0,0,1,82,59.36a4.45,4.45,0,0,1-.13,1.09,4.67,4.67,0,0,1-.37,1.09,3.77,3.77,0,0,1-.62.86M83.5,42.94,69.41,55.52a2.77,2.77,0,0,0-.59.77,4,4,0,0,0-.37,1,4.07,4.07,0,0,0-.11,1.1,3.39,3.39,0,0,0,.18,1L75.4,78.3a1.06,1.06,0,0,0,.34.49.76.76,0,0,0,.46.16,1.06,1.06,0,0,0,.52-.19,2,2,0,0,0,.54-.5L88.18,64.44a4.08,4.08,0,0,0,.32-.58,4.19,4.19,0,0,0,.33-1.44,3.21,3.21,0,0,0,0-.69L85.11,43.91a3.07,3.07,0,0,0-.25-.72,1.53,1.53,0,0,0-.4-.44.78.78,0,0,0-.45-.12,1.35,1.35,0,0,0-.51.31M72.44,74.78a1.6,1.6,0,0,1,.14.78.68.68,0,0,1-.22.49.88.88,0,0,1-.56.17A2.34,2.34,0,0,1,71,76a5.23,5.23,0,0,1-.93-.51,7.67,7.67,0,0,1-.88-.72A6.79,6.79,0,0,1,68.4,74a5,5,0,0,1-.52-.9,2.29,2.29,0,0,1-.19-.77.85.85,0,0,1,.18-.53.82.82,0,0,1,.51-.22,2.29,2.29,0,0,1,.82.15,4.94,4.94,0,0,1,1,.5,7.14,7.14,0,0,1,1.74,1.67,4.48,4.48,0,0,1,.53.93M67.21,61.19a2.62,2.62,0,0,1,.24,1.06,1.28,1.28,0,0,1-.19.72,1,1,0,0,1-.56.37,1.71,1.71,0,0,1-.84,0,3.55,3.55,0,0,1-1-.45,5.58,5.58,0,0,1-1-.76,8.62,8.62,0,0,1-.84-1,6.47,6.47,0,0,1-.61-1.09,3.21,3.21,0,0,1-.26-1,1.42,1.42,0,0,1,.12-.76.9.9,0,0,1,.5-.42,1.31,1.31,0,0,1,.83,0,3.45,3.45,0,0,1,1.09.43,7.12,7.12,0,0,1,1.1.79,9.4,9.4,0,0,1,.89,1.09,4.23,4.23,0,0,1,.51,1m-3.31,5.21a3.13,3.13,0,0,1,.26.89,1,1,0,0,1-.13.58.72.72,0,0,1-.45.26,1.6,1.6,0,0,1-.72-.1,3.53,3.53,0,0,1-.87-.43,7,7,0,0,1-.84-.69,8.6,8.6,0,0,1-.75-.85,5.47,5.47,0,0,1-.56-.93,3.34,3.34,0,0,1-.26-.83,1.06,1.06,0,0,1,.09-.61.52.52,0,0,1,.4-.32,1.23,1.23,0,0,1,.71,0,3.33,3.33,0,0,1,.89.43,6.18,6.18,0,0,1,.9.72,7.49,7.49,0,0,1,.79.9,5.22,5.22,0,0,1,.56,1m-2.49,4.07a2.37,2.37,0,0,1,.22.73.79.79,0,0,1-.09.48.5.5,0,0,1-.38.19,1.37,1.37,0,0,1-.63-.13,3.69,3.69,0,0,1-.75-.42,5.69,5.69,0,0,1-.75-.63,5.28,5.28,0,0,1-.67-.75,4.67,4.67,0,0,1-.51-.82,3,3,0,0,1-.25-.71.78.78,0,0,1,.06-.5.45.45,0,0,1,.33-.24,1.46,1.46,0,0,1,.62.08,3.66,3.66,0,0,1,.78.42,8.27,8.27,0,0,1,.79.65,9,9,0,0,1,.71.81,5.59,5.59,0,0,1,.52.84M55.7,58.41a3.33,3.33,0,0,1,.31.92A1.47,1.47,0,0,1,56,60a.54.54,0,0,1-.35.34.94.94,0,0,1-.62,0,3.06,3.06,0,0,1-.8-.37,8.35,8.35,0,0,1-.81-.66,6.57,6.57,0,0,1-.73-.84,5.94,5.94,0,0,1-.6-1,4,4,0,0,1-.32-.9,1.61,1.61,0,0,1,0-.69.63.63,0,0,1,.31-.4.81.81,0,0,1,.61,0,2.63,2.63,0,0,1,.81.34,5.72,5.72,0,0,1,.86.68,7.49,7.49,0,0,1,.79.9,6.44,6.44,0,0,1,.57,1m-6.37-3.32,8.07,16a4.74,4.74,0,0,0,.36.58,6.52,6.52,0,0,0,.5.55,4.65,4.65,0,0,0,.53.45,2.9,2.9,0,0,0,.54.31l14.78,6.13a2,2,0,0,0,.64.16.62.62,0,0,0,.44-.1.5.5,0,0,0,.21-.35,1.28,1.28,0,0,0-.09-.55l-7-18.88a4.43,4.43,0,0,0-.49-.91,5.25,5.25,0,0,0-1.51-1.42,2.8,2.8,0,0,0-.83-.32L49.75,53.66a.64.64,0,0,0-.43,0,.49.49,0,0,0-.21.31,1.63,1.63,0,0,0,0,.54,3.57,3.57,0,0,0,.27.68M69.51,52.9a5.49,5.49,0,0,1-1.1.69,6.56,6.56,0,0,1-1.26.52,6.37,6.37,0,0,1-1.28.28,4,4,0,0,1-1.09,0,1.78,1.78,0,0,1-.77-.3.68.68,0,0,1-.27-.51,1.07,1.07,0,0,1,.21-.64,3.18,3.18,0,0,1,.66-.71,6,6,0,0,1,1-.64,8.46,8.46,0,0,1,1.17-.48,7,7,0,0,1,1.2-.27,5,5,0,0,1,1.09,0,1.88,1.88,0,0,1,.8.25.77.77,0,0,1,.36.47,1,1,0,0,1-.12.64,2.63,2.63,0,0,1-.64.73M80,44a5.24,5.24,0,0,1-.91.59,9.2,9.2,0,0,1-1.09.44,9.93,9.93,0,0,1-1.17.28,6.65,6.65,0,0,1-1.09.07,2.16,2.16,0,0,1-.8-.17.61.61,0,0,1-.38-.34.5.5,0,0,1,.06-.46,1.82,1.82,0,0,1,.48-.55,4,4,0,0,1,.84-.51A7.75,7.75,0,0,1,78,42.7a6.68,6.68,0,0,1,1.09-.09,2.81,2.81,0,0,1,.82.13.81.81,0,0,1,.44.31.53.53,0,0,1,0,.46,1.74,1.74,0,0,1-.45.56m-22.12,7.3a7,7,0,0,1-1,.59,8.7,8.7,0,0,1-1.1.44,5.77,5.77,0,0,1-1.09.26,4.41,4.41,0,0,1-.89,0,1,1,0,0,1-.54-.24.49.49,0,0,1-.11-.43,1.5,1.5,0,0,1,.31-.55,5,5,0,0,1,.69-.6,6.46,6.46,0,0,1,1-.55,7.21,7.21,0,0,1,1.09-.42,7.09,7.09,0,0,1,1-.25,4.41,4.41,0,0,1,.89,0,1,1,0,0,1,.58.21.45.45,0,0,1,.17.39,1.12,1.12,0,0,1-.25.54,4.82,4.82,0,0,1-.73.61m10.46-7.62a5.17,5.17,0,0,1-.82.48,8.33,8.33,0,0,1-1,.39,8.6,8.6,0,0,1-1,.25,4.3,4.3,0,0,1-.88.07,1.56,1.56,0,0,1-.59-.15.35.35,0,0,1-.22-.28.69.69,0,0,1,.17-.41,2.15,2.15,0,0,1,.52-.48,4.33,4.33,0,0,1,.81-.46,6.54,6.54,0,0,1,.87-.34,7.66,7.66,0,0,1,.94-.25,5,5,0,0,1,.86-.08,1.9,1.9,0,0,1,.63.11.49.49,0,0,1,.26.27.55.55,0,0,1-.11.41,2.15,2.15,0,0,1-.51.49m-4-1.42L50.12,52a3.3,3.3,0,0,0-.53.46.94.94,0,0,0-.25.4.29.29,0,0,0,0,.33.54.54,0,0,0,.36.18L65.48,56.3a2.72,2.72,0,0,0,.9,0,5.55,5.55,0,0,0,1-.21,6,6,0,0,0,1-.4,4.57,4.57,0,0,0,.82-.56L83.38,42.67a.93.93,0,0,0,.3-.41.32.32,0,0,0,0-.33.71.71,0,0,0-.37-.23,2.3,2.3,0,0,0-.64-.09l-15.93-.15a3.08,3.08,0,0,0-.61.06c-.23,0-.46.11-.68.18a3.66,3.66,0,0,0-.58.22c-.2.1-.56.36-.74.48"/><rect class="cls-10" x="92.82" y="54.54" width="10.51" height="11.56"/><path class="cls-6" d="M120.66,58.66H101.77a3.08,3.08,0,0,0-1,.18A4.33,4.33,0,0,0,99.09,60a2.79,2.79,0,0,0-.52.86L91,79.54a1,1,0,0,0-.07.58.67.67,0,0,0,.24.42.94.94,0,0,0,.51.22,1.8,1.8,0,0,0,.73,0l17.33-3a3.33,3.33,0,0,0,.63-.21,5.19,5.19,0,0,0,.65-.37,3.64,3.64,0,0,0,.56-.48,3.2,3.2,0,0,0,.42-.55l9.15-15.65a2.66,2.66,0,0,0,.29-.7,1.14,1.14,0,0,0,0-.58.67.67,0,0,0-.26-.4.92.92,0,0,0-.51-.15M87.27,44.93,82.63,62.08a3.82,3.82,0,0,0-.12.66v.74a4.1,4.1,0,0,0,.1.69,2.88,2.88,0,0,0,.18.59l6.89,14.45a2,2,0,0,0,.37.55.79.79,0,0,0,.4.22.49.49,0,0,0,.38-.12,1.09,1.09,0,0,0,.3-.48l7.42-18.74a4.29,4.29,0,0,0,.24-1,5,5,0,0,0,0-1.09,3.77,3.77,0,0,0-.19-1,2.59,2.59,0,0,0-.39-.8L88.58,44a.75.75,0,0,0-.35-.26.52.52,0,0,0-.36.11,1.23,1.23,0,0,0-.34.41,3.38,3.38,0,0,0-.26.69m19.65.63-17-2.18a2.81,2.81,0,0,0-.71,0,.9.9,0,0,0-.45.13.36.36,0,0,0-.19.26.67.67,0,0,0,.15.38l9.83,12.71a2.57,2.57,0,0,0,.66.61,4.8,4.8,0,0,0,.88.51,5.11,5.11,0,0,0,1,.36,4.82,4.82,0,0,0,1,.14L121,58.7a.86.86,0,0,0,.5-.09.34.34,0,0,0,.19-.28.75.75,0,0,0-.12-.41,2.47,2.47,0,0,0-.42-.49L109.36,46.64a3.5,3.5,0,0,0-.49-.37c-.2-.11-.41-.22-.63-.32a5.4,5.4,0,0,0-.67-.25,3.58,3.58,0,0,0-.65-.14"/><path class="cls-11" d="M105.65,71.34a2.59,2.59,0,0,1-.92-.07,1,1,0,0,1-.73-1.06,2.22,2.22,0,0,1,.24-.87,3.5,3.5,0,0,1,.64-.93,5,5,0,0,1,.91-.81,4.88,4.88,0,0,1,1.09-.56,2.92,2.92,0,0,1,1.09-.27,1.85,1.85,0,0,1,.74.07,1.09,1.09,0,0,1,.51.44,1.23,1.23,0,0,1,.12.68,2.45,2.45,0,0,1-.28.88,4.1,4.1,0,0,1-.63.87,5.57,5.57,0,0,1-.86.75,4.92,4.92,0,0,1-1,.56,3.22,3.22,0,0,1-.95.32m14.91-12.67-18.9-.05a2.75,2.75,0,0,0-.95.17,3.9,3.9,0,0,0-.93.48A4.57,4.57,0,0,0,99,60a3,3,0,0,0-.52.87L90.87,79.53a1.18,1.18,0,0,0-.07.59.67.67,0,0,0,.24.42,1.06,1.06,0,0,0,.51.22,2.24,2.24,0,0,0,.73,0l17.33-3a3.43,3.43,0,0,0,.64-.21c.22-.11.43-.24.64-.37a4.37,4.37,0,0,0,.56-.49,3.2,3.2,0,0,0,.42-.55L121,60.5a2.12,2.12,0,0,0,.29-.7,1.14,1.14,0,0,0,0-.58.78.78,0,0,0-.26-.41,1.07,1.07,0,0,0-.52-.14M91,74.92a2.06,2.06,0,0,1-.41.68.69.69,0,0,1-.51.2.88.88,0,0,1-.52-.25,2.12,2.12,0,0,1-.49-.69,4.94,4.94,0,0,1-.35-1,6.87,6.87,0,0,1-.16-2.26,4.4,4.4,0,0,1,.21-1,2.17,2.17,0,0,1,.38-.7.8.8,0,0,1,.48-.27.72.72,0,0,1,.52.19,1.67,1.67,0,0,1,.51.64,4.78,4.78,0,0,1,.4,1,7.89,7.89,0,0,1,.18,1.2,8,8,0,0,1,0,1.2A4.5,4.5,0,0,1,91,75m5.15-13.58a3.19,3.19,0,0,1-.53.91,1.38,1.38,0,0,1-.62.41,1,1,0,0,1-.66-.1,1.84,1.84,0,0,1-.6-.61,3.69,3.69,0,0,1-.43-1,6.36,6.36,0,0,1-.21-1.22,6.74,6.74,0,0,1,0-1.27,5.35,5.35,0,0,1,.26-1.2,3.39,3.39,0,0,1,.47-.93,1.64,1.64,0,0,1,.6-.48,1,1,0,0,1,.67,0,1.64,1.64,0,0,1,.63.54,4,4,0,0,1,.48,1,6.88,6.88,0,0,1,.24,1.28,7.72,7.72,0,0,1,0,1.36,5.55,5.55,0,0,1-.3,1.28m-5.9,1.76a2.69,2.69,0,0,1-.4.77.87.87,0,0,1-.5.34.64.64,0,0,1-.5-.1,1.47,1.47,0,0,1-.47-.55,4.18,4.18,0,0,1-.35-.91,5.73,5.73,0,0,1-.16-1.09,6.61,6.61,0,0,1,0-1.09,4.19,4.19,0,0,1,.21-1.1,2.83,2.83,0,0,1,.36-.79,1.21,1.21,0,0,1,.47-.4.65.65,0,0,1,.51,0,1.27,1.27,0,0,1,.49.51,3.31,3.31,0,0,1,.38.91,5.89,5.89,0,0,1,.19,1.1,8,8,0,0,1,0,1.2,7.06,7.06,0,0,1-.23,1.2m-4.63,1.29a2.25,2.25,0,0,1-.33.68.68.68,0,0,1-.39.3.52.52,0,0,1-.4-.11,1.45,1.45,0,0,1-.38-.51,4.18,4.18,0,0,1-.28-.82,6.48,6.48,0,0,1-.14-1,8.68,8.68,0,0,1,0-1,6,6,0,0,1,.16-.94,3.08,3.08,0,0,1,.3-.7.84.84,0,0,1,.38-.34.47.47,0,0,1,.4.06,1.33,1.33,0,0,1,.41.47,3.41,3.41,0,0,1,.29.83,5.2,5.2,0,0,1,.15,1.11,6.61,6.61,0,0,1,0,1.09,4.48,4.48,0,0,1-.17,1m3.9-13a3.27,3.27,0,0,1-.41.89,1.32,1.32,0,0,1-.47.47.53.53,0,0,1-.49,0,1.19,1.19,0,0,1-.46-.43,3.18,3.18,0,0,1-.32-.81,5.06,5.06,0,0,1-.17-1,6.73,6.73,0,0,1,0-1.1,6,6,0,0,1,.2-1.09,3.64,3.64,0,0,1,.37-.89,1.36,1.36,0,0,1,.46-.52.57.57,0,0,1,.49-.09.86.86,0,0,1,.48.38,2.37,2.37,0,0,1,.36.81,5.65,5.65,0,0,1,.19,1.09,5.72,5.72,0,0,1-.23,2.31m-2.36-6.62L82.51,62.08a3,3,0,0,0-.11.66,4.57,4.57,0,0,0,0,.74,5.46,5.46,0,0,0,.1.69,2.81,2.81,0,0,0,.19.58l6.88,14.46a2,2,0,0,0,.37.55.71.71,0,0,0,.4.21.49.49,0,0,0,.38-.11,1.21,1.21,0,0,0,.31-.48l7.41-18.74a4.31,4.31,0,0,0,.25-1,6.61,6.61,0,0,0,0-1.09,3.69,3.69,0,0,0-.19-1,2.38,2.38,0,0,0-.39-.8L88.46,44a.62.62,0,0,0-.35-.24.47.47,0,0,0-.36.1,1.26,1.26,0,0,0-.34.42,5.17,5.17,0,0,0-.26.69m16.37,11.83a7,7,0,0,1-1.36-.18,8.62,8.62,0,0,1-1.29-.46,8.11,8.11,0,0,1-1.09-.66,4.31,4.31,0,0,1-.84-.76,1.67,1.67,0,0,1-.36-.73.7.7,0,0,1,.13-.56,1.14,1.14,0,0,1,.59-.34,3.47,3.47,0,0,1,1-.08,5.29,5.29,0,0,1,1.19.2,6.93,6.93,0,0,1,1.18.43,7.2,7.2,0,0,1,1.09.6,4.11,4.11,0,0,1,.84.72,1.82,1.82,0,0,1,.43.72.73.73,0,0,1,0,.58.87.87,0,0,1-.51.39,2.62,2.62,0,0,1-1,.13m13.66.37a3.81,3.81,0,0,1-1-.16,6.24,6.24,0,0,1-1.09-.41A8.61,8.61,0,0,1,114,56a5.73,5.73,0,0,1-.87-.69,1.87,1.87,0,0,1-.48-.66.67.67,0,0,1,0-.5.53.53,0,0,1,.35-.3,1.63,1.63,0,0,1,.73-.08,4.48,4.48,0,0,1,1,.17,8.63,8.63,0,0,1,2,.91,6.64,6.64,0,0,1,.84.64,2.37,2.37,0,0,1,.53.65.79.79,0,0,1,.12.52.46.46,0,0,1-.3.35,1.42,1.42,0,0,1-.71.12M95.76,47.71a5.85,5.85,0,0,1-1.09-.22,11,11,0,0,1-1.09-.4,7.59,7.59,0,0,1-1-.54,3.53,3.53,0,0,1-.68-.6.87.87,0,0,1-.24-.53.47.47,0,0,1,.21-.39,1.25,1.25,0,0,1,.59-.19,3.54,3.54,0,0,1,.92,0,8.09,8.09,0,0,1,1.09.22,7.08,7.08,0,0,1,1.09.39,6.28,6.28,0,0,1,.92.5,3.07,3.07,0,0,1,.67.57,1.05,1.05,0,0,1,.3.52.5.5,0,0,1-.14.42,1.22,1.22,0,0,1-.55.23,4.51,4.51,0,0,1-1,0m13,1.26a5.8,5.8,0,0,1-.94-.19,8.38,8.38,0,0,1-1-.37,7.77,7.77,0,0,1-.9-.48,3.4,3.4,0,0,1-.7-.55,1.14,1.14,0,0,1-.35-.49.33.33,0,0,1,0-.36.81.81,0,0,1,.39-.2,2.81,2.81,0,0,1,.71,0,5.69,5.69,0,0,1,.91.2,8.19,8.19,0,0,1,.94.35,7.84,7.84,0,0,1,.86.45,3.9,3.9,0,0,1,.69.52,1.69,1.69,0,0,1,.39.49.44.44,0,0,1,0,.39.59.59,0,0,1-.35.22,2.12,2.12,0,0,1-.71,0m-1.88-3.49-17-2.18a2.66,2.66,0,0,0-.69,0,1.22,1.22,0,0,0-.47.13.34.34,0,0,0-.18.27.57.57,0,0,0,.14.38l9.83,12.71a2.94,2.94,0,0,0,.66.61,5.51,5.51,0,0,0,.88.52,6.8,6.8,0,0,0,1,.34,4.24,4.24,0,0,0,1,.15l18.87.23a1.25,1.25,0,0,0,.51-.1.38.38,0,0,0,.18-.29.72.72,0,0,0-.12-.4,2,2,0,0,0-.42-.5L109.24,46.55a3.5,3.5,0,0,0-.49-.37,6.25,6.25,0,0,0-.63-.33c-.21-.1-.44-.17-.66-.25l-.65-.14"/></g></g></svg>